<svg width="281" height="38" viewBox="0 0 281 38" fill="none" xmlns="http://www.w3.org/2000/svg">
<g clip-path="url(#clip0_1_165)">
<path fill-rule="evenodd" clip-rule="evenodd" d="M11.9715 30.3108L1.33215 37.3302H13.6192H13.9855C17.8622 37.3302 21.0049 34.1875 21.0049 30.3108H11.9715ZM0 34.6698L9.09325 28.6705V0C4.07119 0 0 4.07119 0 9.09325V34.6698Z" fill="#D9D9D9"/>
<path fill-rule="evenodd" clip-rule="evenodd" d="M48.261 2.33978C45.3186 0.779928 41.8798 0 37.9447 0H23.9592V37.3302H37.9447C41.8443 37.3302 45.2654 36.5503 48.2078 34.9904C51.1858 33.4306 53.4724 31.2326 55.0677 28.3965C56.3293 26.2023 57.103 23.764 57.3885 21.0817L48.0841 21.0817C47.7269 23.3758 46.8286 25.2291 45.3895 26.6416C43.4751 28.5206 40.7985 29.46 37.3598 29.46H33.0524V12.0712C33.0524 9.69229 34.9809 7.76383 37.3598 7.76383C40.7985 7.76383 43.4751 8.72102 45.3895 10.6354C47.2029 12.4488 48.1574 14.9461 48.253 18.1274H57.508C57.4321 14.662 56.6187 11.5974 55.0677 8.93372C53.4724 6.09762 51.2035 3.89964 48.261 2.33978Z" fill="#FF002E"/>
<path d="M72.9055 26.6709H79.3216V29.7503H69V10.3859H72.9055V26.6709Z" fill="white"/>
<path d="M90.4796 12.5498C89.7915 12.5498 89.215 12.3371 88.75 11.9117C88.3037 11.4678 88.0805 10.9222 88.0805 10.2749C88.0805 9.62757 88.3037 9.09121 88.75 8.66583C89.215 8.22194 89.7915 8 90.4796 8C91.1677 8 91.7349 8.22194 92.1813 8.66583C92.6462 9.09121 92.8787 9.62757 92.8787 10.2749C92.8787 10.9222 92.6462 11.4678 92.1813 11.9117C91.7349 12.3371 91.1677 12.5498 90.4796 12.5498ZM92.4044 14.3808V29.7503H88.499V14.3808H92.4044Z" fill="white"/>
<path d="M106.864 16.628C107.366 15.8882 108.054 15.2871 108.928 14.8247C109.821 14.3623 110.834 14.1311 111.969 14.1311C113.289 14.1311 114.479 14.4548 115.539 15.1021C116.618 15.7495 117.464 16.6742 118.078 17.8764C118.71 19.0601 119.026 20.438 119.026 22.0101C119.026 23.5822 118.71 24.9786 118.078 26.1992C117.464 27.4014 116.618 28.3354 115.539 29.0013C114.479 29.6671 113.289 30 111.969 30C110.816 30 109.802 29.7781 108.928 29.3342C108.072 28.8718 107.384 28.2799 106.864 27.5586V29.7503H102.958V9.22068H106.864V16.628ZM115.037 22.0101C115.037 21.0853 114.842 20.29 114.451 19.6242C114.079 18.9399 113.577 18.422 112.945 18.0706C112.331 17.7192 111.662 17.5435 110.936 17.5435C110.23 17.5435 109.56 17.7285 108.928 18.0984C108.314 18.4498 107.812 18.9676 107.421 19.652C107.05 20.3363 106.864 21.1408 106.864 22.0656C106.864 22.9903 107.05 23.7949 107.421 24.4792C107.812 25.1635 108.314 25.6906 108.928 26.0605C109.56 26.4119 110.23 26.5876 110.936 26.5876C111.662 26.5876 112.331 26.4027 112.945 26.0328C113.577 25.6629 114.079 25.1358 114.451 24.4515C114.842 23.7671 115.037 22.9533 115.037 22.0101Z" fill="white"/>
<path d="M132.465 16.7667C132.967 15.9529 133.618 15.3148 134.418 14.8525C135.236 14.3901 136.166 14.1589 137.207 14.1589V18.2371H136.175C134.948 18.2371 134.018 18.5237 133.385 19.0971C132.772 19.6705 132.465 20.6692 132.465 22.0933V29.7503H128.559V14.3808H132.465V16.7667Z" fill="white"/>
<path d="M145.528 22.0101C145.528 20.4565 145.835 19.0786 146.449 17.8764C147.081 16.6742 147.928 15.7495 148.988 15.1021C150.066 14.4548 151.266 14.1311 152.586 14.1311C153.739 14.1311 154.744 14.3623 155.599 14.8247C156.473 15.2871 157.17 15.8697 157.691 16.5725V14.3808H161.625V29.7503H157.691V27.5032C157.189 28.2245 156.492 28.8256 155.599 29.3064C154.725 29.7688 153.711 30 152.558 30C151.256 30 150.066 29.6671 148.988 29.0013C147.928 28.3354 147.081 27.4014 146.449 26.1992C145.835 24.9786 145.528 23.5822 145.528 22.0101ZM157.691 22.0656C157.691 21.1223 157.505 20.3178 157.133 19.652C156.761 18.9676 156.259 18.4498 155.627 18.0984C154.995 17.7285 154.316 17.5435 153.59 17.5435C152.865 17.5435 152.196 17.7192 151.582 18.0706C150.968 18.422 150.466 18.9399 150.076 19.6242C149.704 20.29 149.518 21.0853 149.518 22.0101C149.518 22.9348 149.704 23.7486 150.076 24.4515C150.466 25.1358 150.968 25.6629 151.582 26.0328C152.214 26.4027 152.884 26.5876 153.59 26.5876C154.316 26.5876 154.995 26.4119 155.627 26.0605C156.259 25.6906 156.761 25.1728 157.133 24.5069C157.505 23.8226 157.691 23.0088 157.691 22.0656Z" fill="white"/>
<path d="M180.698 14.1589C182.539 14.1589 184.027 14.7415 185.161 15.9067C186.296 17.0534 186.863 18.6625 186.863 20.7339V29.7503H182.958V21.261C182.958 20.0404 182.651 19.1063 182.037 18.459C181.423 17.7932 180.587 17.4603 179.526 17.4603C178.448 17.4603 177.592 17.7932 176.96 18.459C176.346 19.1063 176.039 20.0404 176.039 21.261V29.7503H172.134V14.3808H176.039V16.2951C176.56 15.6293 177.22 15.1114 178.02 14.7415C178.838 14.3531 179.731 14.1589 180.698 14.1589Z" fill="white"/>
<path d="M209.708 10.3859C211.754 10.3859 213.548 10.7835 215.092 11.5788C216.654 12.3741 217.854 13.5116 218.691 14.9912C219.546 16.4523 219.974 18.1538 219.974 20.0958C219.974 22.0378 219.546 23.7394 218.691 25.2005C217.854 26.6431 216.654 27.7621 215.092 28.5574C213.548 29.3527 211.754 29.7503 209.708 29.7503H202.901V10.3859H209.708ZM209.569 26.4489C211.614 26.4489 213.195 25.8941 214.311 24.7844C215.427 23.6747 215.985 22.1118 215.985 20.0958C215.985 18.0799 215.427 16.5078 214.311 15.3796C213.195 14.2329 211.614 13.6595 209.569 13.6595H206.807V26.4489H209.569Z" fill="#FF002E"/>
<path d="M243.959 21.7327C243.959 22.2875 243.922 22.7869 243.847 23.2308H232.549C232.642 24.3405 233.033 25.2098 233.721 25.8386C234.409 26.4674 235.255 26.7818 236.26 26.7818C237.71 26.7818 238.742 26.1623 239.356 24.9231H243.568C243.122 26.4027 242.267 27.6234 241.002 28.5851C239.737 29.5284 238.184 30 236.343 30C234.855 30 233.516 29.6763 232.326 29.029C231.155 28.3632 230.234 27.4292 229.565 26.227C228.914 25.0248 228.588 23.6377 228.588 22.0656C228.588 20.475 228.914 19.0786 229.565 17.8764C230.215 16.6742 231.127 15.7495 232.298 15.1021C233.47 14.4548 234.818 14.1311 236.343 14.1311C237.812 14.1311 239.124 14.4456 240.277 15.0744C241.448 15.7032 242.35 16.6003 242.983 17.7654C243.633 18.9121 243.959 20.2346 243.959 21.7327ZM239.914 20.623C239.895 19.6242 239.533 18.8289 238.826 18.2371C238.119 17.6267 237.255 17.3216 236.232 17.3216C235.265 17.3216 234.446 17.6175 233.777 18.2093C233.126 18.7827 232.726 19.5872 232.577 20.623H239.914Z" fill="#FF002E"/>
<path d="M259.949 26.1715L263.854 14.3808H268.011L262.292 29.7503H257.55L251.859 14.3808H256.043L259.949 26.1715Z" fill="#FF002E"/>
<path d="M278.629 29.9445C277.922 29.9445 277.336 29.7318 276.871 29.3064C276.425 28.8625 276.202 28.3169 276.202 27.6696C276.202 27.0223 276.425 26.4859 276.871 26.0605C277.336 25.6166 277.922 25.3947 278.629 25.3947C279.317 25.3947 279.884 25.6166 280.33 26.0605C280.777 26.4859 281 27.0223 281 27.6696C281 28.3169 280.777 28.8625 280.33 29.3064C279.884 29.7318 279.317 29.9445 278.629 29.9445Z" fill="#FF002E"/>
</g>
<defs>
<clipPath id="clip0_1_165">
<rect width="281" height="38" fill="white"/>
</clipPath>
</defs>
</svg>
